<svg width="60" height="60" viewBox="0 0 60 60" fill="none" xmlns="http://www.w3.org/2000/svg">
<mask id="mask0_1_34" style="mask-type:alpha" maskUnits="userSpaceOnUse" x="0" y="0" width="60" height="60">
<rect width="60" height="60" fill="#D9D9D9"/>
</mask>
<g mask="url(#mask0_1_34)">
<g filter="url(#filter0_d_1_34)">
<rect x="1" y="1" width="58" height="58" rx="29" stroke="#8E8EA1" stroke-width="2"/>
</g>
<path d="M31.5 39.5H28.5C27.8 39.5 27.2 40.1 27.2 40.8C27.2 41.5 27.8 42.1 28.5 42.1H31.5C32.2 42.1 32.8 41.5 32.8 40.8C32.8 40.1 32.2 39.5 31.5 39.5ZM38.9 36.4H38.1V28.6C38.1 24.5 35.1 21.2 31.2 20.6V19.3C31.2 18.6 30.7 18 30 18C29.3 18 28.7 18.6 28.7 19.3V20.6C24.8 21.2 21.8 24.6 21.8 28.6V36.4H21.2C20.5 36.4 20 37 20 37.7C20 38.4 20.6 39 21.3 39H23.2H37H39C39.7 39 40.3 38.4 40.3 37.7C40.3 37 39.6 36.4 38.9 36.4ZM24.3 36.4V28.6C24.3 25.5 26.8 23 29.9 23C33 23 35.5 25.5 35.5 28.6V36.4H24.3Z" fill="#8E8EA1"/>
</g>
<defs>
<filter id="filter0_d_1_34" x="-50" y="-30" width="160" height="160" filterUnits="userSpaceOnUse" color-interpolation-filters="sRGB">
<feFlood flood-opacity="0" result="BackgroundImageFix"/>
<feColorMatrix in="SourceAlpha" type="matrix" values="0 0 0 0 0 0 0 0 0 0 0 0 0 0 0 0 0 0 127 0" result="hardAlpha"/>
<feOffset dy="20"/>
<feGaussianBlur stdDeviation="25"/>
<feColorMatrix type="matrix" values="0 0 0 0 0.74902 0 0 0 0 0.0823529 0 0 0 0 0.423529 0 0 0 0.05 0"/>
<feBlend mode="normal" in2="BackgroundImageFix" result="effect1_dropShadow_1_34"/>
<feBlend mode="normal" in="SourceGraphic" in2="effect1_dropShadow_1_34" result="shape"/>
</filter>
</defs>
</svg>
