<svg width="60" height="60" viewBox="0 0 60 60" fill="none" xmlns="http://www.w3.org/2000/svg">
<mask id="mask0_1_26" style="mask-type:alpha" maskUnits="userSpaceOnUse" x="0" y="0" width="60" height="60">
<rect width="60" height="60" fill="#D9D9D9"/>
</mask>
<g mask="url(#mask0_1_26)">
<g filter="url(#filter0_d_1_26)">
<rect x="1" y="1" width="58" height="58" rx="29" stroke="#8E8EA1" stroke-width="2"/>
</g>
<path d="M30 16.6667C27.959 16.6653 25.9449 17.1326 24.1129 18.0325C22.281 18.9323 20.68 20.2407 19.4335 21.8569C18.187 23.473 17.3281 25.3538 16.9231 27.3542C16.5181 29.3547 16.5778 31.4214 17.0975 33.3951C17.6172 35.3689 18.5831 37.197 19.9208 38.7386C21.2585 40.2801 22.9322 41.494 24.813 42.2867C26.6938 43.0794 28.7315 43.4297 30.7691 43.3106C32.8066 43.1916 34.7896 42.6063 36.5653 41.6L41.5787 43.2707C41.7149 43.3137 41.8571 43.3348 42 43.3333C42.2112 43.3332 42.4193 43.2829 42.6072 43.1866C42.7951 43.0902 42.9574 42.9507 43.0809 42.7793C43.2043 42.608 43.2852 42.4098 43.3171 42.2011C43.3489 41.9923 43.3307 41.779 43.264 41.5787L41.6 36.5653C42.7525 34.538 43.3524 32.2435 43.3397 29.9115C43.327 27.5795 42.7022 25.2917 41.5277 23.277C40.3532 21.2623 38.6703 19.5914 36.6473 18.4313C34.6242 17.2712 32.332 16.6627 30 16.6667V16.6667ZM38.8707 36.828L39.892 39.8947L36.8253 38.8733C36.6382 38.8095 36.4392 38.7884 36.2429 38.8115C36.0466 38.8345 35.8579 38.9012 35.6907 39.0067C33.4669 40.414 30.8022 40.9519 28.2066 40.5174C25.611 40.0829 23.2668 38.7065 21.6226 36.6516C19.9784 34.5967 19.1498 32.0076 19.2952 29.3799C19.4406 26.7522 20.5499 24.2704 22.4109 22.4095C24.2718 20.5486 26.7535 19.4393 29.3812 19.2939C32.0089 19.1484 34.598 19.9771 36.6529 21.6213C38.7078 23.2654 40.0842 25.6097 40.5187 28.2053C40.9533 30.8009 40.4154 33.4655 39.008 35.6893C38.9018 35.857 38.8344 36.0462 38.8107 36.2432C38.7869 36.4401 38.8074 36.6399 38.8707 36.828V36.828Z" fill="#8E8EA1"/>
<path d="M35.3333 25.3333H24.6667C24.313 25.3333 23.9739 25.4738 23.7239 25.7239C23.4738 25.9739 23.3333 26.313 23.3333 26.6667C23.3333 27.0203 23.4738 27.3594 23.7239 27.6095C23.9739 27.8595 24.313 28 24.6667 28H35.3333C35.6869 28 36.0261 27.8595 36.2761 27.6095C36.5262 27.3594 36.6667 27.0203 36.6667 26.6667C36.6667 26.313 36.5262 25.9739 36.2761 25.7239C36.0261 25.4738 35.6869 25.3333 35.3333 25.3333ZM30 32H24.6667C24.313 32 23.9739 32.1405 23.7239 32.3905C23.4738 32.6406 23.3333 32.9797 23.3333 33.3333C23.3333 33.687 23.4738 34.0261 23.7239 34.2761C23.9739 34.5262 24.313 34.6667 24.6667 34.6667H30C30.3536 34.6667 30.6928 34.5262 30.9428 34.2761C31.1929 34.0261 31.3333 33.687 31.3333 33.3333C31.3333 32.9797 31.1929 32.6406 30.9428 32.3905C30.6928 32.1405 30.3536 32 30 32Z" fill="#8E8EA1"/>
</g>
<defs>
<filter id="filter0_d_1_26" x="-50" y="-30" width="160" height="160" filterUnits="userSpaceOnUse" color-interpolation-filters="sRGB">
<feFlood flood-opacity="0" result="BackgroundImageFix"/>
<feColorMatrix in="SourceAlpha" type="matrix" values="0 0 0 0 0 0 0 0 0 0 0 0 0 0 0 0 0 0 127 0" result="hardAlpha"/>
<feOffset dy="20"/>
<feGaussianBlur stdDeviation="25"/>
<feColorMatrix type="matrix" values="0 0 0 0 0.74902 0 0 0 0 0.0823529 0 0 0 0 0.423529 0 0 0 0.05 0"/>
<feBlend mode="normal" in2="BackgroundImageFix" result="effect1_dropShadow_1_26"/>
<feBlend mode="normal" in="SourceGraphic" in2="effect1_dropShadow_1_26" result="shape"/>
</filter>
</defs>
</svg>
