<svg width="60" height="60" viewBox="0 0 60 60" fill="none" xmlns="http://www.w3.org/2000/svg">
<mask id="mask0_1_16" style="mask-type:alpha" maskUnits="userSpaceOnUse" x="0" y="0" width="60" height="60">
<rect width="60" height="60" fill="#D9D9D9"/>
</mask>
<g mask="url(#mask0_1_16)">
<g filter="url(#filter0_d_1_16)">
<rect x="1" y="1" width="58" height="58" rx="29" stroke="#8E8EA1" stroke-width="2"/>
</g>
<path d="M30 26C29.2089 26 28.4355 26.2346 27.7777 26.6741C27.1199 27.1136 26.6072 27.7384 26.3045 28.4693C26.0017 29.2002 25.9225 30.0044 26.0769 30.7804C26.2312 31.5563 26.6122 32.269 27.1716 32.8284C27.731 33.3878 28.4437 33.7688 29.2196 33.9231C29.9956 34.0775 30.7998 33.9983 31.5307 33.6955C32.2616 33.3928 32.8864 32.8801 33.3259 32.2223C33.7654 31.5645 34 30.7911 34 30C34 28.9391 33.5786 27.9217 32.8284 27.1716C32.0783 26.4214 31.0609 26 30 26V26ZM30 32C29.6044 32 29.2178 31.8827 28.8889 31.6629C28.56 31.4432 28.3036 31.1308 28.1522 30.7654C28.0009 30.3999 27.9613 29.9978 28.0384 29.6098C28.1156 29.2219 28.3061 28.8655 28.5858 28.5858C28.8655 28.3061 29.2219 28.1156 29.6098 28.0384C29.9978 27.9613 30.3999 28.0009 30.7654 28.1522C31.1308 28.3036 31.4432 28.56 31.6629 28.8889C31.8827 29.2178 32 29.6044 32 30C32 30.5304 31.7893 31.0391 31.4142 31.4142C31.0391 31.7893 30.5304 32 30 32V32Z" fill="#8E8EA1"/>
<path d="M41 30C41.0096 29.2824 40.7617 28.5851 40.3012 28.0347C39.8406 27.4843 39.198 27.1172 38.49 27C38.379 26.6759 38.2488 26.3586 38.1 26.05C38.4924 25.4706 38.67 24.7723 38.6019 24.0758C38.5338 23.3793 38.2245 22.7286 37.7273 22.2361C37.2301 21.7437 36.5764 21.4406 35.8793 21.3792C35.1822 21.3178 34.4856 21.502 33.91 21.9C33.6144 21.7527 33.3106 21.6225 33 21.51C32.8843 20.8085 32.5232 20.1708 31.981 19.7108C31.4389 19.2508 30.751 18.9983 30.04 18.9983C29.329 18.9983 28.6411 19.2508 28.099 19.7108C27.5568 20.1708 27.1957 20.8085 27.08 21.51C26.7559 21.621 26.4386 21.7512 26.13 21.9C25.555 21.4481 24.8347 21.2217 24.1045 21.2636C23.3743 21.3055 22.6846 21.6126 22.165 22.1273C21.6454 22.642 21.3317 23.3288 21.2829 24.0585C21.2341 24.7883 21.4535 25.5107 21.9 26.09C21.7512 26.3986 21.621 26.7159 21.51 27.04C20.8085 27.1557 20.1708 27.5168 19.7108 28.059C19.2508 28.6011 18.9983 29.289 18.9983 30C18.9983 30.711 19.2508 31.3989 19.7108 31.941C20.1708 32.4832 20.8085 32.8443 21.51 32.96C21.621 33.2841 21.7512 33.6014 21.9 33.91C21.4807 34.4879 21.2812 35.1964 21.3374 35.9082C21.3937 36.6199 21.7019 37.2883 22.2068 37.7932C22.7117 38.2981 23.3801 38.6063 24.0918 38.6625C24.8036 38.7188 25.5121 38.5193 26.09 38.1C26.3986 38.2488 26.7159 38.379 27.04 38.49C27.1557 39.1915 27.5168 39.8291 28.059 40.2892C28.6011 40.7492 29.289 41.0017 30 41.0017C30.711 41.0017 31.3989 40.7492 31.941 40.2892C32.4832 39.8291 32.8443 39.1915 32.96 38.49C33.2841 38.379 33.6014 38.2488 33.91 38.1C34.4879 38.5193 35.1964 38.7188 35.9082 38.6625C36.6199 38.6063 37.2883 38.2981 37.7932 37.7932C38.2981 37.2883 38.6063 36.6199 38.6625 35.9082C38.7188 35.1964 38.5193 34.4879 38.1 33.91C38.2488 33.6014 38.379 33.2841 38.49 32.96C39.1912 32.8439 39.8284 32.4826 40.2881 31.9405C40.7478 31.3984 41.0001 30.7108 41 30V30ZM38 31H37.74C37.5129 30.9928 37.2901 31.0632 37.1084 31.1995C36.9266 31.3358 36.7967 31.53 36.74 31.75C36.5805 32.3838 36.3277 32.9904 35.99 33.55C35.8794 33.7411 35.835 33.9634 35.864 34.1822C35.8929 34.4011 35.9935 34.6043 36.15 34.76L36.33 34.95C36.4631 35.024 36.5776 35.1274 36.6647 35.2523C36.7518 35.3773 36.8092 35.5205 36.8325 35.671C36.8558 35.8215 36.8445 35.9754 36.7993 36.1208C36.7541 36.2663 36.6762 36.3995 36.5717 36.5103C36.4672 36.6211 36.3388 36.7065 36.1962 36.7601C36.0537 36.8138 35.9007 36.8341 35.7491 36.8196C35.5975 36.8051 35.4512 36.7561 35.3214 36.6765C35.1915 36.5968 35.0816 36.4886 35 36.36L34.81 36.18C34.6536 36.0083 34.4422 35.8965 34.2123 35.8637C33.9824 35.8308 33.7482 35.879 33.55 36C32.9904 36.3377 32.3838 36.5905 31.75 36.75C31.53 36.8067 31.3358 36.9366 31.1995 37.1184C31.0632 37.3001 30.9928 37.5229 31 37.75V38C31 38.2652 30.8946 38.5196 30.7071 38.7071C30.5196 38.8946 30.2652 39 30 39C29.7348 39 29.4804 38.8946 29.2929 38.7071C29.1054 38.5196 29 38.2652 29 38V37.74C29.0072 37.5129 28.9368 37.2901 28.8005 37.1084C28.6642 36.9266 28.47 36.7967 28.25 36.74C27.6162 36.5805 27.0096 36.3277 26.45 35.99C26.2947 35.9019 26.1186 35.857 25.94 35.86C25.6777 35.8611 25.4263 35.9653 25.24 36.15L25.05 36.33C24.976 36.4631 24.8726 36.5776 24.7477 36.6647C24.6227 36.7518 24.4795 36.8092 24.329 36.8325C24.1785 36.8558 24.0246 36.8445 23.8792 36.7993C23.7337 36.7541 23.6005 36.6762 23.4897 36.5717C23.3789 36.4672 23.2934 36.3388 23.2398 36.1962C23.1862 36.0537 23.1659 35.9007 23.1804 35.7491C23.1949 35.5975 23.2439 35.4512 23.3235 35.3214C23.4032 35.1915 23.5114 35.0816 23.64 35L23.82 34.81C23.9916 34.6536 24.1035 34.4422 24.1363 34.2123C24.1692 33.9824 24.121 33.7482 24 33.55C23.6623 32.9904 23.4095 32.3838 23.25 31.75C23.1933 31.53 23.0634 31.3358 22.8816 31.1995C22.6999 31.0632 22.4771 30.9928 22.25 31H22C21.7348 31 21.4804 30.8946 21.2929 30.7071C21.1054 30.5196 21 30.2652 21 30C21 29.7348 21.1054 29.4804 21.2929 29.2929C21.4804 29.1054 21.7348 29 22 29H22.26C22.4871 29.0072 22.7099 28.9368 22.8916 28.8005C23.0734 28.6642 23.2033 28.47 23.26 28.25C23.4195 27.6162 23.6723 27.0096 24.01 26.45C24.1206 26.2589 24.165 26.0366 24.136 25.8178C24.1071 25.5989 24.0065 25.3957 23.85 25.24L23.67 25.05C23.5062 24.8587 23.4206 24.6126 23.4303 24.3609C23.44 24.1093 23.5443 23.8705 23.7224 23.6924C23.9005 23.5143 24.1393 23.41 24.3909 23.4003C24.6426 23.3906 24.8887 23.4762 25.08 23.64L25.27 23.82C25.4257 23.9765 25.6289 24.0771 25.8478 24.106C26.0666 24.135 26.2889 24.0906 26.48 23.98C27.0396 23.6423 27.6462 23.3895 28.28 23.23C28.5 23.1733 28.6942 23.0434 28.8305 22.8616C28.9668 22.6799 29.0372 22.4571 29.03 22.23V22C29.03 21.7348 29.1354 21.4804 29.3229 21.2929C29.5104 21.1054 29.7648 21 30.03 21C30.2952 21 30.5496 21.1054 30.7371 21.2929C30.9246 21.4804 31.03 21.7348 31.03 22V22.26C31.0228 22.4871 31.0932 22.7099 31.2295 22.8916C31.3658 23.0734 31.56 23.2033 31.78 23.26C32.4138 23.4195 33.0204 23.6723 33.58 24.01C33.7711 24.1206 33.9934 24.165 34.2122 24.136C34.4311 24.1071 34.6343 24.0065 34.79 23.85L35 23.64C35.0896 23.5353 35.2 23.4503 35.324 23.3903C35.4481 23.3302 35.5832 23.2965 35.7209 23.2912C35.8587 23.2859 35.996 23.3091 36.1243 23.3594C36.2526 23.4096 36.3692 23.4859 36.4666 23.5833C36.5641 23.6808 36.6404 23.7974 36.6906 23.9257C36.7409 24.054 36.7641 24.1913 36.7588 24.3291C36.7535 24.4668 36.7197 24.6019 36.6597 24.726C36.5997 24.85 36.5147 24.9604 36.41 25.05L36.23 25.24C36.0621 25.3871 35.9483 25.5861 35.9066 25.8054C35.8649 26.0247 35.8978 26.2516 36 26.45C36.3377 27.0096 36.5905 27.6162 36.75 28.25C36.8067 28.47 36.9366 28.6642 37.1184 28.8005C37.3001 28.9368 37.5229 29.0072 37.75 29H38C38.2652 29 38.5196 29.1054 38.7071 29.2929C38.8946 29.4804 39 29.7348 39 30C39 30.2652 38.8946 30.5196 38.7071 30.7071C38.5196 30.8946 38.2652 31 38 31Z" fill="#8E8EA1"/>
</g>
<defs>
<filter id="filter0_d_1_16" x="-50" y="-30" width="160" height="160" filterUnits="userSpaceOnUse" color-interpolation-filters="sRGB">
<feFlood flood-opacity="0" result="BackgroundImageFix"/>
<feColorMatrix in="SourceAlpha" type="matrix" values="0 0 0 0 0 0 0 0 0 0 0 0 0 0 0 0 0 0 127 0" result="hardAlpha"/>
<feOffset dy="20"/>
<feGaussianBlur stdDeviation="25"/>
<feColorMatrix type="matrix" values="0 0 0 0 0.74902 0 0 0 0 0.0823529 0 0 0 0 0.423529 0 0 0 0.05 0"/>
<feBlend mode="normal" in2="BackgroundImageFix" result="effect1_dropShadow_1_16"/>
<feBlend mode="normal" in="SourceGraphic" in2="effect1_dropShadow_1_16" result="shape"/>
</filter>
</defs>
</svg>
